<?xml version="1.0" encoding="UTF-8"?>
<!DOCTYPE svg PUBLIC "-//W3C//DTD SVG 1.1//EN" "http://www.w3.org/Graphics/SVG/1.1/DTD/svg11.dtd">
<svg xmlns="http://www.w3.org/2000/svg" version="1.1" width="512px" height="512px" style="shape-rendering:geometricPrecision; text-rendering:geometricPrecision; image-rendering:optimizeQuality; fill-rule:evenodd; clip-rule:evenodd" xmlns:xlink="http://www.w3.org/1999/xlink">
<g><path style="opacity:0.995" fill="#5668e0" d="M 236.5,12.5 C 338.146,9.22544 415.313,50.5588 468,136.5C 500.461,197.44 507.127,261.106 488,327.5C 461.167,407.667 407.667,461.167 327.5,488C 232.816,513.206 150.316,492.039 80,424.5C 17.4785,354.736 -1.52147,274.402 23,183.5C 49.8333,103.333 103.333,49.8333 183.5,23C 200.989,17.8686 218.656,14.3686 236.5,12.5 Z"/></g>
<g><path style="opacity:1" fill="#e3f2f7" d="M 204.5,69.5 C 187.338,70.3316 170.005,70.8316 152.5,71C 149.272,72.5629 147.105,75.0629 146,78.5C 145.5,132.832 145.333,187.166 145.5,241.5C 140.167,241.5 134.833,241.5 129.5,241.5C 129.5,200.5 129.5,159.5 129.5,118.5C 129.333,104.829 129.5,91.1626 130,77.5C 131.892,73.9421 134.725,71.4421 138.5,70C 160.497,69.5 182.497,69.3334 204.5,69.5 Z"/></g>
<g><path style="opacity:1" fill="#fefefe" d="M 365.5,83.5 C 365.667,177.834 365.5,272.167 365,366.5C 363.833,370.333 361.333,372.833 357.5,374C 353.848,374.499 350.182,374.665 346.5,374.5C 346.5,378.833 346.5,383.167 346.5,387.5C 347.791,387.263 348.791,387.596 349.5,388.5C 348.5,388.5 347.5,388.5 346.5,388.5C 345.667,351.669 345.167,314.669 345,277.5C 343.108,273.942 340.275,271.442 336.5,270C 328.841,269.5 321.174,269.334 313.5,269.5C 300.833,269.5 288.167,269.5 275.5,269.5C 272.167,269.5 268.833,269.5 265.5,269.5C 255.828,269.666 246.161,269.5 236.5,269C 231.543,265.882 227.876,261.715 225.5,256.5C 233.84,256.666 242.173,256.5 250.5,256C 254.085,253.472 254.418,250.472 251.5,247C 240.172,246.5 228.838,246.333 217.5,246.5C 215.195,245.011 212.862,243.511 210.5,242C 188.836,241.5 167.169,241.333 145.5,241.5C 145.333,187.166 145.5,132.832 146,78.5C 147.105,75.0629 149.272,72.5629 152.5,71C 170.005,70.8316 187.338,70.3316 204.5,69.5C 206.986,65.0065 210.819,63.0065 216,63.5C 229.837,65.3004 243.67,67.1337 257.5,69C 290.5,69.3333 323.5,69.6667 356.5,70C 362.622,72.4085 365.622,76.9085 365.5,83.5 Z"/></g>
<g><path style="opacity:1" fill="#e4f4f8" d="M 365.5,83.5 C 382.874,85.2639 400.207,87.4305 417.5,90C 422.374,92.3626 425.041,96.1959 425.5,101.5C 422.696,123.213 419.696,144.879 416.5,166.5C 411.636,204.81 406.969,243.144 402.5,281.5C 401.343,284.273 400.676,287.273 400.5,290.5C 396.853,322.649 392.353,354.649 387,386.5C 384.05,390.64 380.05,392.307 375,391.5C 366.442,390.901 357.942,389.901 349.5,388.5C 348.791,387.596 347.791,387.263 346.5,387.5C 346.5,383.167 346.5,378.833 346.5,374.5C 350.182,374.665 353.848,374.499 357.5,374C 361.333,372.833 363.833,370.333 365,366.5C 365.5,272.167 365.667,177.834 365.5,83.5 Z"/></g>
<g><path style="opacity:1" fill="#9ee5fe" d="M 281.5,169.5 C 276.158,162.935 269.158,160.268 260.5,161.5C 259.883,158.645 258.883,155.978 257.5,153.5C 261.719,149.885 264.052,145.218 264.5,139.5C 270.286,138.389 272.286,135.056 270.5,129.5C 270.115,121.368 270.781,113.368 272.5,105.5C 272.712,102.989 272.045,100.822 270.5,99C 256.26,97.3682 241.927,97.0349 227.5,98C 224.921,99.0757 223.254,100.909 222.5,103.5C 221.507,112.318 221.173,121.318 221.5,130.5C 220.75,136.029 223.083,139.029 228.5,139.5C 228.948,145.394 231.281,150.394 235.5,154.5C 234.545,156.746 233.878,159.079 233.5,161.5C 227.895,160.908 222.561,161.741 217.5,164C 215.536,165.451 214.203,167.284 213.5,169.5C 198.9,153.827 195.4,135.827 203,115.5C 219.141,87.7865 241.974,80.2865 271.5,93C 296.482,110.426 302.316,132.926 289,160.5C 286.958,163.94 284.458,166.94 281.5,169.5 Z"/></g>
<g><path style="opacity:1" fill="#272b2f" d="M 270.5,129.5 C 268.947,127.615 266.947,126.615 264.5,126.5C 264.5,123.833 264.5,121.167 264.5,118.5C 252.5,118.5 240.5,118.5 228.5,118.5C 228.5,121.167 228.5,123.833 228.5,126.5C 226.486,126.392 224.82,127.058 223.5,128.5C 222.507,120.35 222.174,112.017 222.5,103.5C 223.254,100.909 224.921,99.0757 227.5,98C 241.927,97.0349 256.26,97.3682 270.5,99C 272.045,100.822 272.712,102.989 272.5,105.5C 270.781,113.368 270.115,121.368 270.5,129.5 Z"/></g>
<g><path style="opacity:1" fill="#fbc07c" d="M 270.5,129.5 C 272.286,135.056 270.286,138.389 264.5,139.5C 264.052,145.218 261.719,149.885 257.5,153.5C 256.542,153.953 255.708,154.619 255,155.5C 255.952,162.615 253.118,167.282 246.5,169.5C 239.882,167.282 237.048,162.615 238,155.5C 237.329,154.748 236.496,154.414 235.5,154.5C 231.281,150.394 228.948,145.394 228.5,139.5C 223.083,139.029 220.75,136.029 221.5,130.5C 222.5,130.167 223.167,129.5 223.5,128.5C 224.82,127.058 226.486,126.392 228.5,126.5C 228.5,123.833 228.5,121.167 228.5,118.5C 240.5,118.5 252.5,118.5 264.5,118.5C 264.5,121.167 264.5,123.833 264.5,126.5C 266.947,126.615 268.947,127.615 270.5,129.5 Z"/></g>
<g><path style="opacity:1" fill="#1a2892" d="M 129.5,118.5 C 129.5,159.5 129.5,200.5 129.5,241.5C 121.726,240.468 116.226,243.468 113,250.5C 112.5,291.832 112.333,333.165 112.5,374.5C 99.5715,359.666 89.4048,343 82,324.5C 57.1263,254.742 67.7929,191.075 114,133.5C 119.035,128.297 124.202,123.297 129.5,118.5 Z"/></g>
<g><path style="opacity:1" fill="#587783" d="M 222.5,103.5 C 222.174,112.017 222.507,120.35 223.5,128.5C 223.167,129.5 222.5,130.167 221.5,130.5C 221.173,121.318 221.507,112.318 222.5,103.5 Z"/></g>
<g><path style="opacity:1" fill="#211d19" d="M 235.5,127.5 C 237.144,127.286 238.644,127.62 240,128.5C 240.814,130.902 240.647,133.235 239.5,135.5C 237.958,136.747 236.458,136.747 235,135.5C 234.278,132.739 234.445,130.073 235.5,127.5 Z"/></g>
<g><path style="opacity:1" fill="#17130f" d="M 253.5,127.5 C 258.213,127.468 259.713,129.801 258,134.5C 256.604,136.527 254.938,136.86 253,135.5C 252.278,132.739 252.445,130.073 253.5,127.5 Z"/></g>
<g><path style="opacity:1" fill="#b3b3b3" d="M 255.5,129.5 C 257.337,129.639 257.67,130.306 256.5,131.5C 255.702,131.043 255.369,130.376 255.5,129.5 Z"/></g>
<g><path style="opacity:1" fill="#000000" d="M 245.5,136.5 C 246.586,136.62 247.253,137.287 247.5,138.5C 247.167,139.167 246.833,139.833 246.5,140.5C 245.571,139.311 245.238,137.978 245.5,136.5 Z"/></g>
<g><path style="opacity:1" fill="#140f09" d="M 240.5,145.5 C 244.102,148.144 247.768,148.144 251.5,145.5C 252.571,147.325 251.904,148.492 249.5,149C 247.167,149.667 244.833,149.667 242.5,149C 241.177,148.184 240.511,147.017 240.5,145.5 Z"/></g>
<g><path style="opacity:1" fill="#f7fafa" d="M 257.5,153.5 C 258.883,155.978 259.883,158.645 260.5,161.5C 260.666,166.179 260.499,170.845 260,175.5C 259.107,176.081 258.107,176.415 257,176.5C 253.473,175.602 249.973,174.602 246.5,173.5C 242.592,175.088 238.592,175.922 234.5,176C 233.531,171.263 233.197,166.43 233.5,161.5C 233.878,159.079 234.545,156.746 235.5,154.5C 236.496,154.414 237.329,154.748 238,155.5C 237.048,162.615 239.882,167.282 246.5,169.5C 253.118,167.282 255.952,162.615 255,155.5C 255.708,154.619 256.542,153.953 257.5,153.5 Z"/></g>
<g><path style="opacity:1" fill="#46a1fe" d="M 233.5,161.5 C 233.197,166.43 233.531,171.263 234.5,176C 238.592,175.922 242.592,175.088 246.5,173.5C 249.973,174.602 253.473,175.602 257,176.5C 258.107,176.415 259.107,176.081 260,175.5C 260.499,170.845 260.666,166.179 260.5,161.5C 269.158,160.268 276.158,162.935 281.5,169.5C 266.91,183.163 249.91,186.997 230.5,181C 224.075,178.133 218.409,174.3 213.5,169.5C 214.203,167.284 215.536,165.451 217.5,164C 222.561,161.741 227.895,160.908 233.5,161.5 Z"/></g>
<g><path style="opacity:1" fill="#1a2892" d="M 402.5,369.5 C 402.5,340.167 402.5,310.833 402.5,281.5C 406.969,243.144 411.636,204.81 416.5,166.5C 417.268,165.737 417.768,164.737 418,163.5C 450.963,225.687 450.629,287.687 417,349.5C 412.879,356.765 408.046,363.432 402.5,369.5 Z"/></g>
<g><path style="opacity:1" fill="#f14448" d="M 204.5,197.5 C 201.148,200.05 200.815,202.883 203.5,206C 194.506,206.5 185.506,206.666 176.5,206.5C 174.11,206.315 173.11,204.982 173.5,202.5C 173.39,200.626 174.056,199.126 175.5,198C 185.161,197.5 194.828,197.334 204.5,197.5 Z"/></g>
<g><path style="opacity:1" fill="#fc5860" d="M 204s.5,197.5 C 242.501,197.333 280.501,197.5 318.5,198C 321.379,199.666 322.212,202.166 321,205.5C 320.25,206.126 319.416,206.626 318.5,207C 270.998,207.832 223.665,207.665 176.5,206.5C 185.506,206.666 194.506,206.5 203.5,206C 200.815,202.883 201.148,200.05 204.5,197.5 Z"/></g>
<g><path style="opacity:1" fill="#b09ffb" d="M 175.5,220.5 C 185.839,220.334 196.172,220.5 206.5,221C 205.041,224.071 205.374,226.904 207.5,229.5C 196.828,229.667 186.161,229.5 175.5,229C 172.855,226.05 172.855,223.217 175.5,220.5 Z"/></g>
<g><path style="opacity:1" fill="#beb5fc" d="M 175.5,220.5 C 200.33,219.337 225.33,219.17 250.5,220C 254.085,222.528 254.418,225.528 251.5,229C 236.837,229.5 222.17,229.667 207.5,229.5C 205.374,226.904 205.041,224.071 206.5,221C 196.172,220.5 185.839,220.334 175.5,220.5 Z"/></g>
<g><path style="opacity:1" fill="#febb50" d="M 129.5,241.5 C 134.833,241.5 140.167,241.5 145.5,241.5C 167.169,241.333 188.836,241.5 210.5,242C 212.862,243.511 215.195,245.011 217.5,246.5C 219.688,250.207 222.355,253.54 225.5,256.5C 227.876,261.715 231.543,265.882 236.5,269C 246.161,269.5 255.828,269.666 265.5,269.5C 265.333,296.835 265.5,324.169 266,351.5C 267.737,353.625 269.904,354.458 272.5,354C 278.051,349.607 283.718,345.44 289.5,341.5C 294.902,344.726 299.902,348.559 304.5,353C 307.835,355.291 310.668,354.791 313,351.5C 313.499,347.848 313.665,344.182 313.5,340.5C 313.5,316.833 313.5,293.167 313.5,269.5C 321.174,269.334 328.841,269.5 336.5,270C 340.275,271.442 343.108,273.942 345,277.5C 345.167,314.669 345.667,351.669 346.5,388.5C 346.333,399.172 346.5,409.839 347,420.5C 351.643,434.626 361.477,441.626 376.5,441.5C 336.668,442.167 296.668,442.5 256.5,442.5C 215.122,442.656 173.788,442.156 132.5,441C 122.48,436.982 115.98,429.815 113,419.5C 112.5,404.504 112.333,389.504 112.5,374.5C 112.333,333.165 112.5,291.832 113,250.5C 116.226,243.468 121.726,240.468 129.5,241.5 Z"/></g>
<g><path style="opacity:1" fill="#51e38a" d="M 217.5,246.5 C 228.838,246.333 240.172,246.5 251.5,247C 254.418,250.472 254.085,253.472 250.5,256C 242.173,256.5 233.84,256.666 225.5,256.5C 222.355,253.54 219.688,250.207 217.5,246.5 Z"/></g>
<g><path style="opacity:1" fill="#fa565d" d="M 265.5,246.5 C 275.172,246.334 284.839,246.5 294.5,247C 298.482,249.952 298.482,252.952 294.5,256C 285.167,256.667 275.833,256.667 266.5,256C 262.956,253.127 262.623,249.96 265.5,246.5 Z"/></g>
<g><path style="opacity:1" fill="#358fff" d="M 320.5,246.5 C 317.648,248.573 316.982,251.239 318.5,254.5C 316.257,255.474 313.924,255.808 311.5,255.5C 307.533,252.799 307.533,249.966 311.5,247C 314.482,246.502 317.482,246.335 320.5,246.5 Z"/></g>
<g><path style="opacity:1" fill="#4ba3ff" d="M 320.5,246.5 C 327.175,246.334 333.842,246.5 340.5,247C 343.418,250.472 343.085,253.472 339.5,256C 329.991,256.824 320.657,256.658 311.5,255.5C 313.924,255.808 316.257,255.474 318.5,254.5C 316.982,251.239 317.648,248.573 320.5,246.5 Z"/></g>
<g><path style="opacity:1" fill="#ffcf82" d="M 128.5,254.5 C 153.836,254.333 179.169,254.5 204.5,255C 208.487,258.62 208.487,262.287 204.5,266C 179.167,266.667 153.833,266.667 128.5,266C 124.542,262.215 124.542,258.382 128.5,254.5 Z"/></g>
<g><path style="opacity:1" fill="#f14548" d="M 265.5,269.5 C 268.833,269.5 272.167,269.5 275.5,269.5C 275.023,290.259 275.523,310.925 277,331.5C 280.633,334.241 284.133,334.074 287.5,331C 288.833,330.333 290.167,330.333 291.5,331C 296.167,335 300.833,339 305.5,343C 308.775,343.982 311.441,343.149 313.5,340.5C 313.665,344.182 313.499,347.848 313,351.5C 310.668,354.791 307.835,355.291 304.5,353C 299.902,348.559 294.902,344.726 289.5,341.5C 283.718,345.44 278.051,349.607 272.5,354C 269.904,354.458 267.737,353.625 266,351.5C 265.5,324.169 265.333,296.835 265.5,269.5 Z"/></g>
<g><path style="opacity:1" fill="#fb545c" d="M 275.5,269.5 C 288.167,269.5 300.833,269.5 313.5,269.5C 313.5,293.167 313.5,316.833 313.5,340.5C 311.441,343.149 308.775,343.982 305.5,343C 300.833,339 296.167,335 291.5,331C 290.167,330.333 288.833,330.333 287.5,331C 284.133,334.074 280.633,334.241 277,331.5C 275.523,310.925 275.023,290.259 275.5,269.5 Z"/></g>
<g><path style="opacity:1" fill="#dd9440" d="M 402.5,281.5 C 402.5,310.833 402.5,340.167 402.5,369.5C 402.83,385.675 402.496,401.675 401.5,417.5C 401.832,374.997 401.499,332.663 400.5,290.5C 400.676,287.273 401.343,284.273 402.5,281.5 Z"/></g>
<g><path style="opacity:1" fill="#feb32d" d="M 400.5,290.5 C 401.499,332.663 401.832,374.997 401.5,417.5C 399.046,431.621 390.712,439.621 376.5,441.5C 361.477,441.626 351.643,434.626 347,420.5C 346.5,409.839 346.333,399.172 346.5,388.5C 347.5,388.5 348.5,388.5 349.5,388.5C 357.942,389.901 366.442,390.901 375,391.5C 380.05,392.307 384.05,390.64 387,386.5C 392.353,354.649 396.853,322.649 400.5,290.5 Z"/></g>
<g><path style="opacity:1" fill="#ffcf81" d="M 325.5,312.5 C 327.857,312.337 330.19,312.503 332.5,313C 333.126,313.75 333.626,314.584 334,315.5C 334.667,320.5 334.667,325.5 334,330.5C 329.927,334.619 326.26,334.285 323,329.5C 322.333,324.833 322.333,320.167 323,315.5C 324.045,314.627 324.878,313.627 325.5,312.5 Z"/></g>
<g><path style="opacity:1" fill="#ffcf82" d="M 326.5,342.5 C 330.273,341.822 333.106,343.156 335,346.5C 335.667,371.5 335.667,396.5 335,421.5C 331.74,426.285 328.073,426.619 324,422.5C 323.333,396.5 323.333,370.5 324,344.5C 324.995,343.934 325.828,343.267 326.5,342.5 Z"/></g>
</svg>
