<?xml version="1.0" encoding="UTF-8"?>
<!DOCTYPE svg PUBLIC "-//W3C//DTD SVG 1.1//EN" "http://www.w3.org/Graphics/SVG/1.1/DTD/svg11.dtd">
<svg xmlns="http://www.w3.org/2000/svg" version="1.1" width="512px" height="512px" style="shape-rendering:geometricPrecision; text-rendering:geometricPrecision; image-rendering:optimizeQuality; fill-rule:evenodd; clip-rule:evenodd" xmlns:xlink="http://www.w3.org/1999/xlink">
<g><path style="opacity:1" fill="#d5d9e7" d="M 81.5,-0.5 C 86.8333,-0.5 92.1667,-0.5 97.5,-0.5C 97.5,20.8333 97.5,42.1667 97.5,63.5C 92.1667,63.5 86.8333,63.5 81.5,63.5C 81.5,42.1667 81.5,20.8333 81.5,-0.5 Z"/></g>
<g><path style="opacity:1" fill="#293d7c" d="M 97.5,-0.5 C 208.167,-0.5 318.833,-0.5 429.5,-0.5C 429.5,20.8333 429.5,42.1667 429.5,63.5C 318.833,63.5 208.167,63.5 97.5,63.5C 97.5,42.1667 97.5,20.8333 97.5,-0.5 Z"/></g>
<g><path style="opacity:1" fill="#23a6fc" d="M 118.5,24.5 C 123.833,24.5 129.167,24.5 134.5,24.5C 134.5,29.1667 134.5,33.8333 134.5,38.5C 129.167,38.5 123.833,38.5 118.5,38.5C 118.5,33.8333 118.5,29.1667 118.5,24.5 Z"/></g>
<g><path style="opacity:1" fill="#f84554" d="M 148.5,24.5 C 153.833,24.5 159.167,24.5 164.5,24.5C 164.5,29.1667 164.5,33.8333 164.5,38.5C 159.167,38.5 153.833,38.5 148.5,38.5C 148.5,33.8333 148.5,29.1667 148.5,24.5 Z"/></g>
<g><path style="opacity:1" fill="#f8a72b" d="M 178.5,24.5 C 183.833,24.5 189.167,24.5 194.5,24.5C 194.5,29.1667 194.5,33.8333 194.5,38.5C 189.167,38.5 183.833,38.5 178.5,38.5C 178.5,33.8333 178.5,29.1667 178.5,24.5 Z"/></g>
<g><path style="opacity:1" fill="#7f8ab7" d="M 250.5,24.5 C 250.5,29.1667 250.5,33.8333 250.5,38.5C 300.167,38.5 349.833,38.5 399.5,38.5C 399.5,33.8333 399.5,29.1667 399.5,24.5C 400.487,29.3054 400.821,34.3054 400.5,39.5C 350.167,39.5 299.833,39.5 249.5,39.5C 249.179,34.3054 249.513,29.3054 250.5,24.5 Z"/></g>
<g><path style="opacity:1" fill="#e8e8fe" d="M 250.5,24.5 C 300.167,24.5 349.833,24.5 399.5,24.5C 399.5,29.1667 399.5,33.8333 399.5,38.5C 349.833,38.5 300.167,38.5 250.5,38.5C 250.5,33.8333 250.5,29.1667 250.5,24.5 Z"/></g>
<g><path style="opacity:0.992" fill="#445ea0" d="M 80.5,-0.5 C 80.8333,-0.5 81.1667,-0.5 81.5,-0.5C 81.5,20.8333 81.5,42.1667 81.5,63.5C 86.8333,63.5 92.1667,63.5 97.5,63.5C 97.5,63.8333 97.5,64.1667 97.5,64.5C 91.8333,64.5 86.1667,64.5 80.5,64.5C 80.5,74.8333 80.5,85.1667 80.5,95.5C 69.8333,95.5 59.1667,95.5 48.5,95.5C 48.5,194.833 48.5,294.167 48.5,393.5C 59.1667,393.5 69.8333,393.5 80.5,393.5C 86.1667,393.5 91.8333,393.5 97.5,393.5C 208.5,393.5 319.5,393.5 430.5,393.5C 441.167,393.5 451.833,393.5 462.5,393.5C 462.5,294.167 462.5,194.833 462.5,95.5C 451.833,95.5 441.167,95.5 430.5,95.5C 430.5,84.8333 430.5,74.1667 430.5,63.5C 447.223,63.059 463.89,63.559 480.5,65C 487.582,68.4132 492.082,73.9132 494,81.5C 494.667,190.167 494.667,298.833 494,407.5C 493.79,409.058 493.29,410.391 492.5,411.5C 344.054,411.661 195.387,411.494 46.5,411C 38.2253,408.393 33.0587,402.893 31,394.5C 30.8312,284.764 30.3312,175.097 29.5,65.5C 31.0858,64.8519 32.7525,64.3519 34.5,64C 49.8297,63.5001 65.163,63.3334 80.5,63.5C 80.5,42.1667 80.5,20.8333 80.5,-0.5 Z"/></g>
<g><path style="opacity:1" fill="#8a94bf" d="M 429.5,-0.5 C 429.833,-0.5 430.167,-0.5 430.5,-0.5C 430.5,20.8333 430.5,42.1667 430.5,63.5C 430.5,74.1667 430.5,84.8333 430.5,95.5C 429.506,85.3468 429.172,75.0135 429.5,64.5C 318.833,64.5 208.167,64.5 97.5,64.5C 97.5,64.1667 97.5,63.8333 97.5,63.5C 208.167,63.5 318.833,63.5 429.5,63.5C 429.5,42.1667 429.5,20.8333 429.5,-0.5 Z"/></g>
<g><path style="opacity:1" fill="#cecffe" d="M 97.5,64.5 C 97.5,174.167 97.5,283.833 97.5,393.5C 91.8333,393.5 86.1667,393.5 80.5,393.5C 80.5,294.167 80.5,194.833 80.5,95.5C 80.5,85.1667 80.5,74.8333 80.5,64.5C 86.1667,64.5 91.8333,64.5 97.5,64.5 Z"/></g>
<g><path style="opacity:1" fill="#e8e8fe" d="M 97.5,64.5 C 208.167,64.5 318.833,64.5 429.5,64.5C 429.172,75.0135 429.506,85.3468 430.5,95.5C 430.5,194.833 430.5,294.167 430.5,393.5C 319.5,393.5 208.5,393.5 97.5,393.5C 97.5,283.833 97.5,174.167 97.5,64.5 Z"/></g>
<g><path style="opacity:1" fill="#2e4c89" d="M 29.5,65.5 C 30.3312,175.097 30.8312,284.764 31,394.5C 33.0587,402.893 38.2253,408.393 46.5,411C 195.387,411.494 344.054,411.661 492.5,411.5C 489.663,418.275 484.663,422.775 477.5,425C 418.168,425.5 358.834,425.667 299.5,425.5C 277.5,425.5 255.5,425.5 233.5,425.5C 233.5,436.833 233.5,448.167 233.5,459.5C 226.167,459.5 218.833,459.5 211.5,459.5C 211.5,448.167 211.5,436.833 211.5,425.5C 152.166,425.667 92.8324,425.5 33.5,425C 24.5567,422.391 19.0567,416.557 17,407.5C 16.3333,298.833 16.3333,190.167 17,81.5C 18.7459,74.2564 22.9126,68.9231 29.5,65.5 Z"/></g>
<g><path style="opacity:1" fill="#1bbc6c" d="M 128.5,95.5 C 128.5,143.167 128.5,190.833 128.5,238.5C 124.833,238.5 121.167,238.5 117.5,238.5C 117.5,190.833 117.5,143.167 117.5,95.5C 121.167,95.5 124.833,95.5 128.5,95.5 Z"/></g>
<g><path style="opacity:1" fill="#cfcfff" d="M 279.5,95.5 C 319.833,95.5 360.167,95.5 400.5,95.5C 400.5,100.167 400.5,104.833 400.5,109.5C 360.167,109.5 319.833,109.5 279.5,109.5C 279.5,104.833 279.5,100.167 279.5,95.5 Z"/></g>
<g><path style="opacity:1" fill="#6fc0f8" d="M 80.5,95.5 C 80.5,194.833 80.5,294.167 80.5,393.5C 69.8333,393.5 59.1667,393.5 48.5,393.5C 48.5,294.167 48.5,194.833 48.5,95.5C 59.1667,95.5 69.8333,95.5 80.5,95.5 Z"/></g>
<g><path style="opacity:1" fill="#42ca8d" d="M 128.5,95.5 C 170.833,95.5 213.167,95.5 255.5,95.5C 255.5,142.833 255.5,190.167 255.5,237.5C 246.167,237.5 236.833,237.5 227.5,237.5C 227.829,224.656 227.495,211.989 226.5,199.5C 225.259,193.086 221.592,188.586 215.5,186C 196.167,185.333 176.833,185.333 157.5,186C 152.184,188.147 148.851,191.98 147.5,197.5C 146.504,210.99 146.171,224.656 146.5,238.5C 140.5,238.5 134.5,238.5 128.5,238.5C 128.5,190.833 128.5,143.167 128.5,95.5 Z"/></g>
<g><path style="opacity:1" fill="#6fc0f8" d="M 430.5,95.5 C 441.167,95.5 451.833,95.5 462.5,95.5C 462.5,194.833 462.5,294.167 462.5,393.5C 451.833,393.5 441.167,393.5 430.5,393.5C 430.5,294.167 430.5,194.833 430.5,95.5 Z"/></g>
<g><path style="opacity:1" fill="#293e7c" d="M 181.5,115.5 C 194.932,114.631 204.432,120.297 210,132.5C 212.023,154.144 202.19,164.31 180.5,163C 167.405,157.978 161.571,148.478 163,134.5C 166.017,124.984 172.184,118.651 181.5,115.5 Z"/></g>
<g><path style="opacity:1" fill="#cfcfff" d="M 279.5,127.5 C 319.833,127.5 360.167,127.5 400.5,127.5C 400.5,132.167 400.5,136.833 400.5,141.5C 360.167,141.5 319.833,141.5 279.5,141.5C 279.5,136.833 279.5,132.167 279.5,127.5 Z"/></g>
<g><path style="opacity:1" fill="#d0d0ff" d="M 278.5,159.5 C 319.167,159.5 359.833,159.5 400.5,159.5C 400.5,164.5 400.5,169.5 400.5,174.5C 359.833,174.5 319.167,174.5 278.5,174.5C 278.5,169.5 278.5,164.5 278.5,159.5 Z"/></g>
<g><path style="opacity:1" fill="#293d7c" d="M 226.5,199.5 C 226.5,212.167 226.5,224.833 226.5,237.5C 200.167,237.5 173.833,237.5 147.5,237.5C 147.5,224.167 147.5,210.833 147.5,197.5C 148.851,191.98 152.184,188.147 157.5,186C 176.833,185.333 196.167,185.333 215.5,186C 221.592,188.586 225.259,193.086 226.5,199.5 Z"/></g>
<g><path style="opacity:1" fill="#d0d0ff" d="M 278.5,191.5 C 319.167,191.5 359.833,191.5 400.5,191.5C 400.5,196.5 400.5,201.5 400.5,206.5C 359.833,206.5 319.167,206.5 278.5,206.5C 278.5,201.5 278.5,196.5 278.5,191.5 Z"/></g>
<g><path style="opacity:1" fill="#51ab97" d="M 226.5,199.5 C 227.495,211.989 227.829,224.656 227.5,237.5C 236.833,237.5 246.167,237.5 255.5,237.5C 246.014,238.494 236.348,238.827 226.5,238.5C 226.5,238.167 226.5,237.833 226.5,237.5C 226.5,224.833 226.5,212.167 226.5,199.5 Z"/></g>
<g><path style="opacity:1" fill="#d0d0ff" d="M 278.5,223.5 C 319.167,223.5 359.833,223.5 400.5,223.5C 400.5,228.5 400.5,233.5 400.5,238.5C 359.833,238.5 319.167,238.5 278.5,238.5C 278.5,233.5 278.5,228.5 278.5,223.5 Z"/></g>
<g><path style="opacity:1" fill="#477690" d="M 147.5,197.5 C 147.5,210.833 147.5,224.167 147.5,237.5C 173.833,237.5 200.167,237.5 226.5,237.5C 226.5,237.833 226.5,238.167 226.5,238.5C 199.833,238.5 173.167,238.5 146.5,238.5C 146.171,224.656 146.504,210.99 147.5,197.5 Z"/></g>
<g><path style="opacity:1" fill="#fba92c" d="M 118.5,269.5 C 209.833,269.5 301.167,269.5 392.5,269.5C 392.5,277.5 392.5,285.5 392.5,293.5C 301.167,293.5 209.833,293.5 118.5,293.5C 118.5,285.5 118.5,277.5 118.5,269.5 Z"/></g>
<g><path style="opacity:1" fill="#f1c998" d="M 118.5,269.5 C 118.5,277.5 118.5,285.5 118.5,293.5C 209.833,293.5 301.167,293.5 392.5,293.5C 301.002,294.499 209.335,294.833 117.5,294.5C 117.174,285.983 117.507,277.65 118.5,269.5 Z"/></g>
<g><path style="opacity:1" fill="#0494fa" d="M 335.5,325.5 C 335.5,339.833 335.5,354.167 335.5,368.5C 331.833,368.5 328.167,368.5 324.5,368.5C 324.5,354.167 324.5,339.833 324.5,325.5C 328.167,325.5 331.833,325.5 335.5,325.5 Z"/></g>
<g><path style="opacity:1" fill="#c24945" d="M 128.5,325.5 C 128.5,339.833 128.5,354.167 128.5,368.5C 124.833,368.5 121.167,368.5 117.5,368.5C 117.5,354.167 117.5,339.833 117.5,325.5C 121.167,325.5 124.833,325.5 128.5,325.5 Z"/></g>
<g><path style="opacity:1" fill="#ec524e" d="M 128.5,325.5 C 147.833,325.5 167.167,325.5 186.5,325.5C 186.5,339.833 186.5,354.167 186.5,368.5C 167.167,368.5 147.833,368.5 128.5,368.5C 128.5,354.167 128.5,339.833 128.5,325.5 Z"/></g>
<g><path style="opacity:1" fill="#02ba67" d="M 232.5,325.5 C 232.5,339.833 232.5,354.167 232.5,368.5C 228.833,368.5 225.167,368.5 221.5,368.5C 221.5,354.167 221.5,339.833 221.5,325.5C 225.167,325.5 228.833,325.5 232.5,325.5 Z"/></g>
<g><path style="opacity:1" fill="#43cb8e" d="M 232.5,325.5 C 251.5,325.5 270.5,325.5 289.5,325.5C 289.5,339.833 289.5,354.167 289.5,368.5C 270.5,368.5 251.5,368.5 232.5,368.5C 232.5,354.167 232.5,339.833 232.5,325.5 Z"/></g>
<g><path style="opacity:1" fill="#23a8fe" d="M 335.5,325.5 C 354.5,325.5 373.5,325.5 392.5,325.5C 392.5,339.833 392.5,354.167 392.5,368.5C 373.5,368.5 354.5,368.5 335.5,368.5C 335.5,354.167 335.5,339.833 335.5,325.5 Z"/></g>
<g><path style="opacity:0.998" fill="#445ea0" d="M 299.5,425.5 C 299.5,436.833 299.5,448.167 299.5,459.5C 277.5,459.5 255.5,459.5 233.5,459.5C 233.5,448.167 233.5,436.833 233.5,425.5C 255.5,425.5 277.5,425.5 299.5,425.5 Z"/></g>
<g><path style="opacity:0.998" fill="#293d7c" d="M 186.5,459.5 C 194.833,459.5 203.167,459.5 211.5,459.5C 218.833,459.5 226.167,459.5 233.5,459.5C 255.5,459.5 277.5,459.5 299.5,459.5C 316.503,459.333 333.503,459.5 350.5,460C 360,462.833 366.167,469 369,478.5C 369.5,489.495 369.667,500.495 369.5,511.5C 301.167,511.5 232.833,511.5 164.5,511.5C 164.064,499.757 164.564,488.09 166,476.5C 170.038,467.282 176.871,461.615 186.5,459.5 Z"/></g>
<g><path style="opacity:1" fill="#1a2b63" d="M 186.5,459.5 C 176.871,461.615 170.038,467.282 166,476.5C 164.564,488.09 164.064,499.757 164.5,511.5C 156.833,511.5 149.167,511.5 141.5,511.5C 141.333,500.495 141.5,489.495 142,478.5C 144.833,469 151,462.833 160.5,460C 169.16,459.5 177.827,459.334 186.5,459.5 Z"/></g>
</svg>
